<svg width="100" height="16" viewBox="0 0 100 16" fill="none" xmlns="http://www.w3.org/2000/svg">
<path d="M15.8408 1V15.2905H13.9367L6.74242 4.26836V15.2905H4.84814V1H6.74242L13.9662 12.0516V1H15.8408Z" fill="white"/>
<path d="M23.8698 1V15.2905H22.0049V1H23.8698ZM28.4632 1V2.55075H17.4214V1H28.4632Z" fill="white"/>
<path d="M42.2632 1H46.994C48.0671 1 48.9733 1.16358 49.7127 1.49075C50.4586 1.81791 51.0246 2.30211 51.4107 2.94335C51.8033 3.57805 51.9996 4.35997 51.9996 5.28911C51.9996 5.94344 51.8654 6.54215 51.5972 7.08524C51.3354 7.62179 50.9559 8.07982 50.4586 8.45933C49.9679 8.83229 49.379 9.11038 48.6919 9.29359L48.1619 9.49971H43.7158L43.6962 7.95877H47.0529C47.7334 7.95877 48.2993 7.84099 48.7508 7.60543C49.2023 7.36333 49.5426 7.03944 49.7716 6.63375C50.0006 6.22807 50.1151 5.77986 50.1151 5.28911C50.1151 4.73948 50.0071 4.25855 49.7912 3.84632C49.5753 3.4341 49.235 3.11675 48.7705 2.89428C48.3124 2.66526 47.7203 2.55075 46.994 2.55075H44.1575V15.2905H42.2632V1ZM50.6157 15.2905L47.1412 8.81266L49.114 8.80285L52.6375 15.1727V15.2905H50.6157Z" fill="white"/>
<path d="M58.6048 13.1214L62.8154 1H64.8667L59.5764 15.2905H58.114L58.6048 13.1214ZM54.669 1L58.8403 13.1214L59.3605 15.2905H57.8981L52.6177 1H54.669Z" fill="white"/>
<path d="M68.4792 1V15.2905H66.585V1H68.4792Z" fill="white"/>
<path d="M1.89428 1V15.2905H0V1H1.89428Z" fill="white"/>
<path d="M87.8924 10.9719L90.7289 1H92.103L91.3079 4.87689L88.2555 15.2905H86.8912L87.8924 10.9719ZM84.9577 1L87.2151 10.7756L87.8924 15.2905H86.5379L83.0732 1H84.9577ZM95.7737 10.7658L97.9821 1H99.8764L96.4215 15.2905H95.0671L95.7737 10.7658ZM92.3091 1L95.0671 10.9719L96.0682 15.2905H94.7039L91.7594 4.87689L90.9546 1H92.3091Z" fill="white"/>
<path d="M81.4924 1.47086H74.2686C72.7074 1.47086 71.4419 2.73641 71.4419 4.29755V4.29755C71.4419 5.85869 72.7074 7.12424 74.2686 7.12424H79.922C80.4424 7.12424 80.8642 7.54609 80.8642 8.06647V8.06647C80.8642 8.58685 80.4424 9.0087 79.922 9.0087H74.2686C72.7074 9.0087 71.4419 10.2743 71.4419 11.8354V11.8354C71.4419 13.3965 72.7074 14.6621 74.2686 14.6621H81.4924" stroke="white" stroke-width="1.6"/>
<path d="M40.3351 1.47086H33.1114C31.5502 1.47086 30.2847 2.73641 30.2847 4.29755V4.29755C30.2847 5.85869 31.5502 7.12424 33.1114 7.12424H38.7647C39.2851 7.12424 39.707 7.54609 39.707 8.06647V8.06647C39.707 8.58685 39.2851 9.0087 38.7647 9.0087H33.1114C31.5502 9.0087 30.2847 10.2743 30.2847 11.8354V11.8354C30.2847 13.3965 31.5502 14.6621 33.1114 14.6621H40.3351" stroke="white" stroke-width="1.6"/>
</svg>
