<svg width="296" height="21" viewBox="0 0 296 21" fill="none" xmlns="http://www.w3.org/2000/svg">
<path d="M7.99814 21C6.49971 21 5.15695 20.7566 3.96988 20.2698C2.78281 19.783 1.82926 19.0626 1.10923 18.1085C0.408664 17.1544 0.0389204 16.0056 0 14.662H5.31264C5.39048 15.4214 5.65319 16.0056 6.10078 16.4145C6.54836 16.8039 7.13217 16.9986 7.85219 16.9986C8.59168 16.9986 9.17549 16.8331 9.60361 16.5021C10.0317 16.1516 10.2458 15.6745 10.2458 15.0709C10.2458 14.5647 10.0707 14.146 9.72037 13.815C9.38955 13.484 8.97116 13.2114 8.46519 12.9972C7.97868 12.783 7.27812 12.5396 6.36349 12.267C5.04019 11.8581 3.96015 11.4492 3.12336 11.0403C2.28657 10.6314 1.56655 10.0278 0.96328 9.22949C0.360014 8.43116 0.0583807 7.38943 0.0583807 6.10431C0.0583807 4.19611 0.749218 2.70654 2.13089 1.6356C3.51257 0.545201 5.31264 0 7.5311 0C9.78848 0 11.608 0.545201 12.9897 1.6356C14.3714 2.70654 15.1109 4.20584 15.2082 6.13352H9.80794C9.76902 5.47149 9.52577 4.95549 9.07819 4.58554C8.6306 4.19611 8.05653 4.00139 7.35596 4.00139C6.75269 4.00139 6.26619 4.1669 5.89644 4.49791C5.5267 4.80946 5.34183 5.26704 5.34183 5.87065C5.34183 6.53268 5.65319 7.04868 6.27592 7.41864C6.89864 7.7886 7.87165 8.18776 9.19495 8.61613C10.5182 9.06398 11.5886 9.49235 12.4059 9.90125C13.2427 10.3102 13.9627 10.904 14.566 11.6829C15.1692 12.4618 15.4709 13.4645 15.4709 14.6912C15.4709 15.8595 15.1692 16.9207 14.566 17.8748C13.9822 18.8289 13.1259 19.5883 11.9972 20.153C10.8685 20.7177 9.5355 21 7.99814 21Z" fill="white"/>
<path d="M33.2838 0.292072V4.29346H27.8544V20.7956H22.8629V4.29346H17.4335V0.292072H33.2838Z" fill="white"/>
<path d="M48.5451 17.1739H40.8972L39.6712 20.7956H34.4462L41.8605 0.292072H47.6402L55.0545 20.7956H49.7711L48.5451 17.1739ZM47.2607 13.3185L44.7212 5.81224L42.2108 13.3185H47.2607Z" fill="white"/>
<path d="M69.1915 20.7956L62.3026 11.7413V20.7956H57.3111V0.292072H62.3026V9.2879L69.1331 0.292072H75.0004L67.0606 10.3394L75.2923 20.7956H69.1915Z" fill="white"/>
<path d="M82.656 4.29346V8.44089H89.3406V12.2962H82.656V16.7942H90.2163V20.7956H77.6645V0.292072H90.2163V4.29346H82.656Z" fill="white"/>
<path d="M104.547 0.292072V12.5591C104.547 13.7858 104.848 14.7302 105.452 15.3922C106.055 16.0542 106.94 16.3853 108.108 16.3853C109.276 16.3853 110.171 16.0542 110.793 15.3922C111.416 14.7302 111.728 13.7858 111.728 12.5591V0.292072H116.719V12.5299C116.719 14.3602 116.33 15.9082 115.551 17.1739C114.773 18.4395 113.722 19.3936 112.399 20.0362C111.095 20.6787 109.636 21 108.02 21C106.405 21 104.955 20.6885 103.671 20.0654C102.406 19.4228 101.404 18.4687 100.664 17.2031C99.9249 15.9179 99.5552 14.3602 99.5552 12.5299V0.292072H104.547Z" fill="white"/>
<path d="M127.639 21C126.14 21 124.797 20.7566 123.61 20.2698C122.423 19.783 121.47 19.0626 120.75 18.1085C120.049 17.1544 119.679 16.0056 119.64 14.662H124.953C125.031 15.4214 125.294 16.0056 125.741 16.4145C126.189 16.8039 126.773 16.9986 127.493 16.9986C128.232 16.9986 128.816 16.8331 129.244 16.5021C129.672 16.1516 129.886 15.6745 129.886 15.0709C129.886 14.5647 129.711 14.146 129.361 13.815C129.03 13.484 128.612 13.2114 128.106 12.9972C127.619 12.783 126.918 12.5396 126.004 12.267C124.681 11.8581 123.601 11.4492 122.764 11.0403C121.927 10.6314 121.207 10.0278 120.604 9.22949C120 8.43116 119.699 7.38943 119.699 6.10431C119.699 4.19611 120.39 2.70654 121.771 1.6356C123.153 0.545201 124.953 0 127.171 0C129.429 0 131.248 0.545201 132.63 1.6356C134.012 2.70654 134.751 4.20584 134.849 6.13352H129.448C129.409 5.47149 129.166 4.95549 128.719 4.58554C128.271 4.19611 127.697 4.00139 126.996 4.00139C126.393 4.00139 125.907 4.1669 125.537 4.49791C125.167 4.80946 124.982 5.26704 124.982 5.87065C124.982 6.53268 125.294 7.04868 125.916 7.41864C126.539 7.7886 127.512 8.18776 128.835 8.61613C130.159 9.06398 131.229 9.49235 132.046 9.90125C132.883 10.3102 133.603 10.904 134.206 11.6829C134.81 12.4618 135.111 13.4645 135.111 14.6912C135.111 15.8595 134.81 16.9207 134.206 17.8748C133.623 18.8289 132.766 19.5883 131.638 20.153C130.509 20.7177 129.176 21 127.639 21Z" fill="white"/>
<path d="M145.86 0.292072C148.02 0.292072 149.908 0.720445 151.523 1.57719C153.138 2.43394 154.384 3.64117 155.259 5.19889C156.155 6.73714 156.602 8.51878 156.602 10.5438C156.602 12.5494 156.155 14.331 155.259 15.8887C154.384 17.4465 153.128 18.6537 151.494 19.5104C149.879 20.3672 148.001 20.7956 145.86 20.7956H138.183V0.292072H145.86ZM145.539 16.4729C147.427 16.4729 148.896 15.9569 149.947 14.9249C150.998 13.8929 151.523 12.4325 151.523 10.5438C151.523 8.65508 150.998 7.18498 149.947 6.13352C148.896 5.08206 147.427 4.55633 145.539 4.55633H143.175V16.4729H145.539Z" fill="white"/>
<path d="M174.133 0.292072V4.29346H168.703V20.7956H163.712V4.29346H158.282V0.292072H174.133Z" fill="white"/>
<path d="M197.565 0.292072V4.29346H192.135V20.7956H187.144V4.29346H181.714V0.292072H197.565Z" fill="white"/>
<path d="M209.761 21C207.835 21 206.064 20.5522 204.448 19.6565C202.853 18.7608 201.578 17.5146 200.625 15.9179C199.69 14.3018 199.223 12.491 199.223 10.4854C199.223 8.47983 199.69 6.67872 200.625 5.08206C201.578 3.4854 202.853 2.23922 204.448 1.34353C206.064 0.447845 207.835 0 209.761 0C211.688 0 213.449 0.447845 215.045 1.34353C216.66 2.23922 217.925 3.4854 218.839 5.08206C219.773 6.67872 220.24 8.47983 220.24 10.4854C220.24 12.491 219.773 14.3018 218.839 15.9179C217.905 17.5146 216.64 18.7608 215.045 19.6565C213.449 20.5522 211.688 21 209.761 21ZM209.761 16.4437C211.396 16.4437 212.7 15.8985 213.673 14.8081C214.665 13.7177 215.161 12.2768 215.161 10.4854C215.161 8.67455 214.665 7.23366 213.673 6.16273C212.7 5.07232 211.396 4.52712 209.761 4.52712C208.107 4.52712 206.784 5.06259 205.791 6.13352C204.818 7.20445 204.332 8.65508 204.332 10.4854C204.332 12.2962 204.818 13.7469 205.791 14.8373C206.784 15.9082 208.107 16.4437 209.761 16.4437Z" fill="white"/>
<path d="M234.898 20.7956L228.009 11.7413V20.7956H223.017V0.292072H228.009V9.2879L234.839 0.292072H240.707L232.767 10.3394L240.999 20.7956H234.898Z" fill="white"/>
<path d="M248.362 4.29346V8.44089H255.047V12.2962H248.362V16.7942H255.923V20.7956H243.371V0.292072H255.923V4.29346H248.362Z" fill="white"/>
<path d="M277.495 20.7956H272.503L264.155 8.14882V20.7956H259.163V0.292072H264.155L272.503 12.9972V0.292072H277.495V20.7956Z" fill="white"/>
<path d="M288.527 21C287.029 21 285.686 20.7566 284.499 20.2698C283.312 19.783 282.358 19.0626 281.638 18.1085C280.938 17.1544 280.568 16.0056 280.529 14.662H285.842C285.92 15.4214 286.182 16.0056 286.63 16.4145C287.078 16.8039 287.661 16.9986 288.381 16.9986C289.121 16.9986 289.705 16.8331 290.133 16.5021C290.561 16.1516 290.775 15.6745 290.775 15.0709C290.775 14.5647 290.6 14.146 290.25 13.815C289.919 13.484 289.5 13.2114 288.994 12.9972C288.508 12.783 287.807 12.5396 286.893 12.267C285.569 11.8581 284.489 11.4492 283.652 11.0403C282.816 10.6314 282.096 10.0278 281.492 9.22949C280.889 8.43116 280.588 7.38943 280.588 6.10431C280.588 4.19611 281.278 2.70654 282.66 1.6356C284.042 0.545201 285.842 0 288.06 0C290.318 0 292.137 0.545201 293.519 1.6356C294.901 2.70654 295.64 4.20584 295.737 6.13352H290.337C290.298 5.47149 290.055 4.95549 289.607 4.58554C289.16 4.19611 288.586 4.00139 287.885 4.00139C287.282 4.00139 286.795 4.1669 286.426 4.49791C286.056 4.80946 285.871 5.26704 285.871 5.87065C285.871 6.53268 286.182 7.04868 286.805 7.41864C287.428 7.7886 288.401 8.18776 289.724 8.61613C291.047 9.06398 292.118 9.49235 292.935 9.90125C293.772 10.3102 294.492 10.904 295.095 11.6829C295.698 12.4618 296 13.4645 296 14.6912C296 15.8595 295.698 16.9207 295.095 17.8748C294.511 18.8289 293.655 19.5883 292.526 20.153C291.398 20.7177 290.065 21 288.527 21Z" fill="white"/>
</svg>
