<svg width="28" height="28" viewBox="0 0 28 28" fill="none" xmlns="http://www.w3.org/2000/svg">
<rect x="3.80005" y="1" width="23.2" height="26" stroke="white" stroke-width="2"/>
<rect y="5.60001" width="3.73333" height="2.8" fill="white"/>
<rect y="12.6" width="3.73333" height="2.8" fill="white"/>
<rect y="19.6" width="3.73333" height="2.8" fill="white"/>
<path d="M13.9552 17.3452V16.606C13.9552 15.8369 14.0634 15.1948 14.28 14.6796C14.504 14.1644 14.7802 13.7276 15.1088 13.3692C15.4448 13.0108 15.7845 12.686 16.128 12.3948C16.5461 12.0438 16.912 11.6892 17.2256 11.3308C17.5392 10.9724 17.696 10.5132 17.696 9.95317C17.696 9.39317 17.5056 8.92651 17.1248 8.55317C16.744 8.17237 16.1877 7.98197 15.456 7.98197C14.6197 7.98197 13.9776 8.22837 13.5296 8.72117C13.0816 9.20651 12.8576 9.87104 12.8576 10.7148H10.304C10.304 9.63211 10.5205 8.70251 10.9536 7.92597C11.3866 7.14944 11.9877 6.55584 12.7568 6.14517C13.5333 5.72704 14.433 5.51797 15.456 5.51797C16.5013 5.51797 17.3824 5.71584 18.0992 6.11157C18.8234 6.49984 19.3685 7.02997 19.7344 7.70197C20.1077 8.37397 20.2944 9.12437 20.2944 9.95317C20.2944 10.6028 20.1973 11.1516 20.0032 11.5996C19.809 12.0401 19.5626 12.4209 19.264 12.742C18.9653 13.0556 18.6517 13.3505 18.3232 13.6268C18.017 13.8881 17.7258 14.1569 17.4496 14.4332C17.1733 14.702 16.9493 15.0118 16.7776 15.3628C16.6133 15.7137 16.5312 16.1356 16.5312 16.6284V17.3452H13.9552ZM15.2544 22.4C14.7541 22.4 14.4218 22.4 13.9552 22.4C13.9552 21.9333 13.9552 20.581 13.9552 20.1031C13.9552 19.6327 13.9552 20.0031 13.9552 19.6C14.4218 19.6 14.7466 19.6 15.2544 19.6C15.7621 19.6 16.0562 19.6 16.52 19.6C16.52 20.1854 16.5312 20.5296 16.5312 21C16.5312 21.4779 16.5312 21.9333 16.5312 22.4C16.0645 22.4 15.7621 22.4 15.2544 22.4Z" fill="white"/>
</svg>
