<svg width="16" height="16" viewBox="0 0 16 16" fill="none" xmlns="http://www.w3.org/2000/svg">
<path d="M11.5 15C11.5 15.2761 11.7239 15.5 12 15.5C12.2761 15.5 12.5 15.2761 12.5 15L11.5 15ZM12.3536 0.646446C12.1583 0.451184 11.8417 0.451184 11.6464 0.646446L8.46447 3.82843C8.2692 4.02369 8.2692 4.34027 8.46447 4.53553C8.65973 4.7308 8.97631 4.7308 9.17157 4.53553L12 1.70711L14.8284 4.53553C15.0237 4.7308 15.3403 4.7308 15.5355 4.53553C15.7308 4.34027 15.7308 4.02369 15.5355 3.82843L12.3536 0.646446ZM12.5 15L12.5 1L11.5 1L11.5 15L12.5 15Z" fill="white"/>
<path d="M4.5 1C4.5 0.723858 4.27614 0.5 4 0.5C3.72386 0.5 3.5 0.723858 3.5 1L4.5 1ZM3.64644 15.3536C3.84171 15.5488 4.15829 15.5488 4.35355 15.3536L7.53553 12.1716C7.73079 11.9763 7.73079 11.6597 7.53553 11.4645C7.34027 11.2692 7.02369 11.2692 6.82842 11.4645L4 14.2929L1.17157 11.4645C0.976308 11.2692 0.659726 11.2692 0.464464 11.4645C0.269202 11.6597 0.269202 11.9763 0.464464 12.1716L3.64644 15.3536ZM3.5 1L3.5 15L4.5 15L4.5 1L3.5 1Z" fill="white"/>
</svg>
