<svg width="16" height="16" viewBox="0 0 16 16" fill="none" xmlns="http://www.w3.org/2000/svg">
<path d="M15 4.5C15.2761 4.5 15.5 4.27614 15.5 4C15.5 3.72386 15.2761 3.5 15 3.5V4.5ZM0.646447 3.64645C0.451184 3.84171 0.451184 4.15829 0.646447 4.35355L3.82843 7.53553C4.02369 7.7308 4.34027 7.7308 4.53553 7.53553C4.7308 7.34027 4.7308 7.02369 4.53553 6.82843L1.70711 4L4.53553 1.17157C4.7308 0.976311 4.7308 0.659728 4.53553 0.464466C4.34027 0.269204 4.02369 0.269204 3.82843 0.464466L0.646447 3.64645ZM15 3.5L1 3.5V4.5L15 4.5V3.5Z" fill="white"/>
<path d="M1 11.5C0.723858 11.5 0.5 11.7239 0.5 12C0.5 12.2761 0.723858 12.5 1 12.5L1 11.5ZM15.3536 12.3536C15.5488 12.1583 15.5488 11.8417 15.3536 11.6464L12.1716 8.46447C11.9763 8.26921 11.6597 8.26921 11.4645 8.46447C11.2692 8.65973 11.2692 8.97631 11.4645 9.17157L14.2929 12L11.4645 14.8284C11.2692 15.0237 11.2692 15.3403 11.4645 15.5355C11.6597 15.7308 11.9763 15.7308 12.1716 15.5355L15.3536 12.3536ZM1 12.5L15 12.5L15 11.5L1 11.5L1 12.5Z" fill="white"/>
</svg>
