<svg width="20" height="18" viewBox="0 0 20 18" fill="none" xmlns="http://www.w3.org/2000/svg">
<path d="M14.1252 0.75C12.5302 0.75 10.9993 1.4925 10.0002 2.66583C9.001 1.4925 7.47016 0.75 5.87516 0.75C3.05183 0.75 0.833496 2.96833 0.833496 5.79167C0.833496 9.25667 3.95016 12.08 8.671 16.37L10.0002 17.5708L11.3293 16.3608C16.0502 12.08 19.1668 9.25667 19.1668 5.79167C19.1668 2.96833 16.9485 0.75 14.1252 0.75ZM10.0918 15.0042L10.0002 15.0958L9.9085 15.0042C5.54516 11.0533 2.66683 8.44083 2.66683 5.79167C2.66683 3.95833 4.04183 2.58333 5.87516 2.58333C7.28683 2.58333 8.66183 3.49083 9.14766 4.74667H10.8618C11.3385 3.49083 12.7135 2.58333 14.1252 2.58333C15.9585 2.58333 17.3335 3.95833 17.3335 5.79167C17.3335 8.44083 14.4552 11.0533 10.0918 15.0042Z" fill="#7A7A7A"/>
</svg>
