<svg width="19" height="19" viewBox="0 0 19 19" fill="none" xmlns="http://www.w3.org/2000/svg">
<circle cx="9.5" cy="9.5" r="8.8" stroke="white" stroke-width="1.4"/>
<path d="M10.3986 4L10.2246 11.685H8.73188L8.55072 4H10.3986ZM8.5 14.0422C8.5 13.7678 8.58696 13.5383 8.76087 13.3537C8.93961 13.1642 9.18599 13.0694 9.5 13.0694C9.80918 13.0694 10.0531 13.1642 10.2319 13.3537C10.4106 13.5383 10.5 13.7678 10.5 14.0422C10.5 14.3066 10.4106 14.5336 10.2319 14.7231C10.0531 14.9077 9.80918 15 9.5 15C9.18599 15 8.93961 14.9077 8.76087 14.7231C8.58696 14.5336 8.5 14.3066 8.5 14.0422Z" fill="white"/>
</svg>
