<svg width="14" height="14" viewBox="0 0 14 14" fill="none" xmlns="http://www.w3.org/2000/svg">
<path d="M6.57574 6.57574C6.34142 6.81005 6.34142 7.18995 6.57574 7.42426C6.81005 7.65858 7.18995 7.65858 7.42426 7.42426L6.57574 6.57574ZM13.6 1C13.6 0.668629 13.3314 0.4 13 0.4L7.6 0.4C7.26863 0.4 7 0.668629 7 1C7 1.33137 7.26863 1.6 7.6 1.6H12.4V6.4C12.4 6.73137 12.6686 7 13 7C13.3314 7 13.6 6.73137 13.6 6.4L13.6 1ZM7.42426 7.42426L13.4243 1.42426L12.5757 0.575736L6.57574 6.57574L7.42426 7.42426Z" fill="#F5C3DC"/>
<path d="M5 1H1.4C1.17909 1 1 1.17909 1 1.4V12.6C1 12.8209 1.17909 13 1.4 13H12.6C12.8209 13 13 12.8209 13 12.6V9" stroke="#F5C3DC" stroke-width="1.2" stroke-linecap="round" stroke-linejoin="round"/>
</svg>
