<svg width="46" height="23" viewBox="0 0 46 23" fill="none" xmlns="http://www.w3.org/2000/svg">
<path d="M19 22.3438H14.5361L4.46394 6.98184V22.3438H0V0H4.46394L14.5716 15.2331V0H19.0355L19 22.3438Z" fill="white"/>
<path d="M26.6354 0.031738V22.3438H22.1715V0.031738H26.6354Z" fill="white"/>
<path d="M46 6.88664C46 8.07143 45.713 9.18218 45.1391 10.2189C44.5864 11.2556 43.7043 12.0913 42.4926 12.726C41.3022 13.3607 39.793 13.6781 37.9649 13.6781H34.2343V22.3438H29.7704V0.031738H37.9649C39.6867 0.031738 41.1534 0.327936 42.3651 0.920335C43.5767 1.51273 44.4801 2.32728 45.0753 3.36398C45.6918 4.40068 46 5.5749 46 6.88664ZM37.7736 10.0919C39.0065 10.0919 39.9205 9.8169 40.5157 9.26681C41.1109 8.69557 41.4085 7.90218 41.4085 6.88664C41.4085 4.72861 40.1969 3.6496 37.7736 3.6496H34.2343V10.0919H37.7736Z" fill="white"/>
</svg>
