<svg width="26" height="26" viewBox="0 0 26 26" fill="none" xmlns="http://www.w3.org/2000/svg">
<rect x="1" y="1" width="24" height="24" stroke="black" stroke-width="2"/>
<path d="M8 25V15H18V25" stroke="black" stroke-width="2"/>
<path d="M16.5 8.34465e-07L16.5 5.5C16.5 7.433 14.933 9 13 9V9C11.067 9 9.5 7.433 9.5 5.5L9.5 2.22505e-07" stroke="black" stroke-width="2"/>
<path d="M9 8.34465e-07L9 5.5C9 7.433 7.433 9 5.5 9V9C3.567 9 2 7.433 2 5.5L2 2.22505e-07" stroke="black" stroke-width="2"/>
<path d="M24 8.34465e-07L24 5.5C24 7.433 22.433 9 20.5 9V9C18.567 9 17 7.433 17 5.5L17 2.22505e-07" stroke="black" stroke-width="2"/>
</svg>
