<svg width="28" height="31" viewBox="0 0 28 31" fill="none" xmlns="http://www.w3.org/2000/svg">
<path d="M21.2271 6.67869C21.6706 6.04532 22.549 5.88635 23.1349 6.39085C25.0078 8.0035 26.4272 10.0895 27.2373 12.4421C28.1998 15.2375 28.2527 18.2659 27.3883 21.0932C26.5239 23.9205 24.7866 26.4016 22.4254 28.1809C20.0642 29.9602 17.2004 30.9463 14.2443 30.9979C11.2883 31.0495 8.39175 30.1639 5.96992 28.4681C3.54809 26.7723 1.72528 24.3534 0.762735 21.5579C-0.199808 18.7625 -0.252665 15.7341 0.611739 12.9068C1.33921 10.5273 2.68491 8.39313 4.50044 6.7161C5.0684 6.19145 5.95182 6.31968 6.41715 6.93718C6.88247 7.55469 6.75172 8.42675 6.19705 8.96543C4.84733 10.2762 3.84388 11.9118 3.28939 13.7254C2.59787 15.9873 2.64015 18.41 3.41019 20.6464C4.18022 22.8827 5.63847 24.8179 7.57593 26.1745C9.5134 27.5311 11.8306 28.2396 14.1955 28.1983C16.5603 28.157 18.8514 27.3681 20.7403 25.9447C22.6293 24.5213 24.0191 22.5364 24.7106 20.2746C25.4021 18.0127 25.3598 15.59 24.5898 13.3536C23.9724 11.5605 22.9125 9.96093 21.5178 8.69802C20.9447 8.17903 20.7836 7.31205 21.2271 6.67869Z" fill="white"/>
<rect x="12.5" width="3" height="16" rx="1.5" fill="white"/>
</svg>
