<svg width="70" height="70" viewBox="0 0 70 70" fill="none" xmlns="http://www.w3.org/2000/svg">
<path d="M66.0061 35C68.2119 35 70.0236 36.794 69.7724 38.9854C69.0091 45.646 66.3439 51.9781 62.0554 57.2038C56.9184 63.4632 49.77 67.7478 41.8282 69.3275C33.8863 70.9072 25.6424 69.6843 18.5011 65.8672C11.3598 62.0501 5.76297 55.875 2.66422 48.3939C-0.434537 40.9129 -0.843473 32.5888 1.50709 24.84C3.85765 17.0913 8.82227 10.3973 15.555 5.89857C22.2878 1.39987 30.3722 -0.625152 38.4306 0.168534C45.1582 0.831142 51.5202 3.42408 56.7697 7.59409C58.4969 8.96606 58.4843 11.5157 56.9246 13.0754V13.0754C55.3649 14.6351 52.8507 14.6068 51.0783 13.2939C47.1718 10.4003 42.5347 8.59916 37.6477 8.11783C31.4283 7.50528 25.189 9.06815 19.9928 12.5401C14.7966 16.0121 10.965 21.1784 9.1509 27.1588C7.33679 33.1391 7.6524 39.5634 10.0439 45.3371C12.4355 51.1109 16.755 55.8767 22.2665 58.8227C27.778 61.7686 34.1405 62.7124 40.2698 61.4932C46.3992 60.274 51.9162 56.9673 55.8807 52.1364C58.996 48.3404 61.0014 43.7878 61.7176 38.9795C62.0425 36.7978 63.8004 35 66.0061 35V35Z" fill="#fff"/>
</svg>
