<svg width="26" height="26" viewBox="0 0 26 26" fill="none" xmlns="http://www.w3.org/2000/svg">
<path d="M24.4614 1.02495C24.5973 1.02578 24.7275 1.08015 24.8236 1.1763C24.9197 1.27244 24.9741 1.40258 24.975 1.53852V11.2322C24.975 11.4464 24.9088 11.7525 24.7769 12.0714C24.6449 12.3903 24.4753 12.6537 24.3236 12.8055L12.3042 24.8249C12.304 24.825 12.3039 24.8251 12.3038 24.8253C12.2073 24.9211 12.0768 24.975 11.9408 24.975C11.8048 24.975 11.6743 24.9212 11.5778 24.8254C11.5777 24.8252 11.5775 24.8251 11.5773 24.8249L1.17498 14.4226C1.17481 14.4224 1.17464 14.4222 1.17447 14.422C1.0787 14.3256 1.02495 14.1951 1.02495 14.0592C1.02495 13.9232 1.07871 13.7927 1.17447 13.6963C1.17464 13.6961 1.17481 13.6959 1.17498 13.6957L13.1944 1.67634C13.3453 1.52546 13.6086 1.35587 13.9281 1.22357C14.2475 1.09128 14.5539 1.02495 14.7677 1.02495H24.4614ZM17.2076 10.482C17.5866 10.6392 17.9929 10.7201 18.4032 10.7203C19.2319 10.7205 20.0268 10.3916 20.613 9.8058C21.1992 9.22002 21.5286 8.42536 21.5289 7.59666C21.5292 6.76795 21.2003 5.97308 20.6145 5.38691C20.0287 4.80073 19.234 4.47126 18.4053 4.47099C17.995 4.47085 17.5887 4.55153 17.2095 4.70844C16.8304 4.86534 16.4858 5.09538 16.1956 5.38543C15.9053 5.67549 15.6751 6.01987 15.5179 6.39891C15.3607 6.77796 15.2798 7.18424 15.2797 7.59458C15.2795 8.00491 15.3602 8.41125 15.5171 8.7904C15.674 9.16955 15.904 9.51409 16.1941 9.80433C16.4841 10.0946 16.8285 10.3249 17.2076 10.482Z" stroke="white" stroke-width="1.4"/>
</svg>
