<svg width="24" height="24" viewBox="0 0 24 24" fill="none" xmlns="http://www.w3.org/2000/svg">
<mask id="path-1-inside-1_0_3351" fill="white">
<path d="M21.9044 11.5532C22.2333 14.0319 21.7079 16.5487 20.4148 18.6888C19.1216 20.8289 17.138 22.4645 14.7907 23.3262C12.4434 24.1879 9.87263 24.2241 7.50199 23.429C5.13136 22.6339 3.10236 21.0548 1.7494 18.952C0.396435 16.8492 -0.199749 14.3483 0.0591017 11.8613C0.317953 9.37425 1.41639 7.04966 3.17338 5.27057C4.93038 3.49149 7.24107 2.36409 9.72464 2.07418C12.2082 1.78428 14.7164 2.34917 16.836 3.67575L15.6688 5.5406C13.9732 4.47933 11.9666 4.02742 9.97971 4.25935C7.99285 4.49127 6.1443 5.39319 4.73871 6.81646C3.33311 8.23972 2.45436 10.0994 2.24728 12.089C2.0402 14.0786 2.51715 16.0794 3.59952 17.7616C4.68189 19.4438 6.30509 20.7071 8.2016 21.3432C10.0981 21.9793 12.1547 21.9503 14.0326 21.261C15.9104 20.5716 17.4973 19.2631 18.5318 17.551C19.5663 15.839 19.9867 13.8255 19.7235 11.8425L21.9044 11.5532Z"/>
</mask>
<path d="M21.9044 11.5532C22.2333 14.0319 21.7079 16.5487 20.4148 18.6888C19.1216 20.8289 17.138 22.4645 14.7907 23.3262C12.4434 24.1879 9.87263 24.2241 7.50199 23.429C5.13136 22.6339 3.10236 21.0548 1.7494 18.952C0.396435 16.8492 -0.199749 14.3483 0.0591017 11.8613C0.317953 9.37425 1.41639 7.04966 3.17338 5.27057C4.93038 3.49149 7.24107 2.36409 9.72464 2.07418C12.2082 1.78428 14.7164 2.34917 16.836 3.67575L15.6688 5.5406C13.9732 4.47933 11.9666 4.02742 9.97971 4.25935C7.99285 4.49127 6.1443 5.39319 4.73871 6.81646C3.33311 8.23972 2.45436 10.0994 2.24728 12.089C2.0402 14.0786 2.51715 16.0794 3.59952 17.7616C4.68189 19.4438 6.30509 20.7071 8.2016 21.3432C10.0981 21.9793 12.1547 21.9503 14.0326 21.261C15.9104 20.5716 17.4973 19.2631 18.5318 17.551C19.5663 15.839 19.9867 13.8255 19.7235 11.8425L21.9044 11.5532Z" stroke="black" stroke-width="4" mask="url(#path-1-inside-1_0_3351)"/>
<path d="M6 11.583L10.4861 16.0691L22.0691 4.48612" stroke="black" stroke-width="2.4" stroke-linecap="round"/>
</svg>
