<svg width="20" height="20" viewBox="0 0 20 20" fill="none" xmlns="http://www.w3.org/2000/svg">
<circle cx="10" cy="10" r="9.3" stroke="#D9D9D9" stroke-width="1.4"/>
<path d="M9.06152 15.0625L9.28711 8.15137L10.9277 8.15137L11.1602 15.0625L9.06152 15.0625ZM11.2148 6.01172C11.2148 6.30339 11.1146 6.54492 10.9141 6.73633C10.709 6.93229 10.4401 7.03027 10.1074 7.03027C9.77018 7.03027 9.5013 6.93229 9.30078 6.73633C9.10026 6.54492 9 6.30339 9 6.01172C9 5.72917 9.10026 5.48991 9.30078 5.29395C9.5013 5.09798 9.77018 5 10.1074 5C10.4401 5 10.709 5.09798 10.9141 5.29395C11.1146 5.48991 11.2148 5.72917 11.2148 6.01172Z" fill="#D9D9D9"/>
</svg>
