<svg width="406" height="29" viewBox="0 0 406 29" fill="none" xmlns="http://www.w3.org/2000/svg">
<path d="M11.128 28.76C9.07464 28.76 7.23464 28.4267 5.60797 27.76C3.9813 27.0933 2.67464 26.1067 1.68797 24.8C0.727969 23.4933 0.221302 21.92 0.167969 20.08H7.44797C7.55464 21.12 7.91464 21.92 8.52797 22.48C9.1413 23.0133 9.9413 23.28 10.928 23.28C11.9413 23.28 12.7413 23.0533 13.328 22.6C13.9146 22.12 14.208 21.4667 14.208 20.64C14.208 19.9467 13.968 19.3733 13.488 18.92C13.0346 18.4667 12.4613 18.0933 11.768 17.8C11.1013 17.5067 10.1413 17.1733 8.88797 16.8C7.07464 16.24 5.59464 15.68 4.44797 15.12C3.3013 14.56 2.31464 13.7333 1.48797 12.64C0.661302 11.5467 0.247969 10.12 0.247969 8.36C0.247969 5.74667 1.19464 3.70667 3.08797 2.24C4.9813 0.746666 7.44797 0 10.488 0C13.5813 0 16.0746 0.746666 17.968 2.24C19.8613 3.70667 20.8746 5.76 21.008 8.4H13.608C13.5546 7.49333 13.2213 6.78667 12.608 6.28C11.9946 5.74667 11.208 5.48 10.248 5.48C9.4213 5.48 8.75463 5.70667 8.24797 6.16C7.7413 6.58666 7.48797 7.21333 7.48797 8.04C7.48797 8.94666 7.91464 9.65333 8.76797 10.16C9.6213 10.6667 10.9546 11.2133 12.768 11.8C14.5813 12.4133 16.048 13 17.168 13.56C18.3146 14.12 19.3013 14.9333 20.128 16C20.9546 17.0667 21.368 18.44 21.368 20.12C21.368 21.72 20.9546 23.1733 20.128 24.48C19.328 25.7867 18.1546 26.8267 16.608 27.6C15.0613 28.3733 13.2346 28.76 11.128 28.76Z" fill="white"/>
<path d="M45.7773 0.4V5.88H38.3373V28.48H31.4973V5.88H24.0573V0.4H45.7773Z" fill="white"/>
<path d="M66.6902 23.52H56.2102L54.5302 28.48H47.3702L57.5302 0.4H65.4502L75.6102 28.48H68.3702L66.6902 23.52ZM64.9302 18.24L61.4502 7.96L58.0102 18.24H64.9302Z" fill="white"/>
<path d="M94.9823 28.48L85.5423 16.08V28.48H78.7023V0.4H85.5423V12.72L94.9023 0.4H102.942L92.0623 14.16L103.342 28.48H94.9823Z" fill="white"/>
<path d="M113.433 5.88V11.56H122.593V16.84H113.433V23H123.793V28.48H106.593V0.4H123.793V5.88H113.433Z" fill="white"/>
<path d="M143.43 0.4V17.2C143.43 18.88 143.844 20.1733 144.67 21.08C145.497 21.9867 146.71 22.44 148.31 22.44C149.91 22.44 151.137 21.9867 151.99 21.08C152.843 20.1733 153.27 18.88 153.27 17.2V0.4H160.11V17.16C160.11 19.6667 159.577 21.7867 158.51 23.52C157.443 25.2533 156.004 26.56 154.19 27.44C152.404 28.32 150.404 28.76 148.19 28.76C145.977 28.76 143.99 28.3333 142.23 27.48C140.497 26.6 139.124 25.2933 138.11 23.56C137.097 21.8 136.59 19.6667 136.59 17.16V0.4H143.43Z" fill="white"/>
<path d="M175.073 28.76C173.02 28.76 171.18 28.4267 169.553 27.76C167.927 27.0933 166.62 26.1067 165.633 24.8C164.673 23.4933 164.167 21.92 164.113 20.08H171.393C171.5 21.12 171.86 21.92 172.473 22.48C173.087 23.0133 173.887 23.28 174.873 23.28C175.887 23.28 176.687 23.0533 177.273 22.6C177.86 22.12 178.153 21.4667 178.153 20.64C178.153 19.9467 177.913 19.3733 177.433 18.92C176.98 18.4667 176.407 18.0933 175.713 17.8C175.047 17.5067 174.087 17.1733 172.833 16.8C171.02 16.24 169.54 15.68 168.393 15.12C167.247 14.56 166.26 13.7333 165.433 12.64C164.607 11.5467 164.193 10.12 164.193 8.36C164.193 5.74667 165.14 3.70667 167.033 2.24C168.927 0.746666 171.393 0 174.433 0C177.527 0 180.02 0.746666 181.913 2.24C183.807 3.70667 184.82 5.76 184.953 8.4H177.553C177.5 7.49333 177.167 6.78667 176.553 6.28C175.94 5.74667 175.153 5.48 174.193 5.48C173.367 5.48 172.7 5.70667 172.193 6.16C171.687 6.58666 171.433 7.21333 171.433 8.04C171.433 8.94666 171.86 9.65333 172.713 10.16C173.567 10.6667 174.9 11.2133 176.713 11.8C178.527 12.4133 179.993 13 181.113 13.56C182.26 14.12 183.247 14.9333 184.073 16C184.9 17.0667 185.313 18.44 185.313 20.12C185.313 21.72 184.9 23.1733 184.073 24.48C183.273 25.7867 182.1 26.8267 180.553 27.6C179.007 28.3733 177.18 28.76 175.073 28.76Z" fill="white"/>
<path d="M200.043 0.4C203.003 0.4 205.589 0.986666 207.803 2.16C210.016 3.33333 211.723 4.98667 212.923 7.12C214.149 9.22667 214.763 11.6667 214.763 14.44C214.763 17.1867 214.149 19.6267 212.923 21.76C211.723 23.8933 210.003 25.5467 207.763 26.72C205.549 27.8933 202.976 28.48 200.043 28.48H189.523V0.4H200.043ZM199.603 22.56C202.189 22.56 204.203 21.8533 205.643 20.44C207.083 19.0267 207.803 17.0267 207.803 14.44C207.803 11.8533 207.083 9.84 205.643 8.4C204.203 6.96 202.189 6.24 199.603 6.24H196.363V22.56H199.603Z" fill="white"/>
<path d="M238.785 0.4V5.88H231.345V28.48H224.505V5.88H217.065V0.4H238.785Z" fill="white"/>
<path d="M270.895 0.4V5.88H263.455V28.48H256.615V5.88H249.175V0.4H270.895Z" fill="white"/>
<path d="M287.607 28.76C284.967 28.76 282.541 28.1467 280.327 26.92C278.141 25.6933 276.394 23.9867 275.087 21.8C273.807 19.5867 273.167 17.1067 273.167 14.36C273.167 11.6133 273.807 9.14667 275.087 6.96C276.394 4.77333 278.141 3.06667 280.327 1.84C282.541 0.613334 284.967 0 287.607 0C290.247 0 292.661 0.613334 294.847 1.84C297.061 3.06667 298.794 4.77333 300.047 6.96C301.327 9.14667 301.967 11.6133 301.967 14.36C301.967 17.1067 301.327 19.5867 300.047 21.8C298.767 23.9867 297.034 25.6933 294.847 26.92C292.661 28.1467 290.247 28.76 287.607 28.76ZM287.607 22.52C289.847 22.52 291.634 21.7733 292.967 20.28C294.327 18.7867 295.007 16.8133 295.007 14.36C295.007 11.88 294.327 9.90667 292.967 8.44C291.634 6.94667 289.847 6.2 287.607 6.2C285.341 6.2 283.527 6.93333 282.167 8.4C280.834 9.86667 280.167 11.8533 280.167 14.36C280.167 16.84 280.834 18.8267 282.167 20.32C283.527 21.7867 285.341 22.52 287.607 22.52Z" fill="white"/>
<path d="M322.053 28.48L312.613 16.08V28.48H305.773V0.4H312.613V12.72L321.973 0.4H330.013L319.133 14.16L330.413 28.48H322.053Z" fill="white"/>
<path d="M340.503 5.88V11.56H349.663V16.84H340.503V23H350.863V28.48H333.663V0.4H350.863V5.88H340.503Z" fill="white"/>
<path d="M380.424 28.48H373.584L362.144 11.16V28.48H355.304V0.4H362.144L373.584 17.8V0.4H380.424V28.48Z" fill="white"/>
<path d="M395.542 28.76C393.489 28.76 391.649 28.4267 390.022 27.76C388.395 27.0933 387.089 26.1067 386.102 24.8C385.142 23.4933 384.635 21.92 384.582 20.08H391.862C391.969 21.12 392.329 21.92 392.942 22.48C393.555 23.0133 394.355 23.28 395.342 23.28C396.355 23.28 397.155 23.0533 397.742 22.6C398.329 22.12 398.622 21.4667 398.622 20.64C398.622 19.9467 398.382 19.3733 397.902 18.92C397.449 18.4667 396.875 18.0933 396.182 17.8C395.515 17.5067 394.555 17.1733 393.302 16.8C391.489 16.24 390.009 15.68 388.862 15.12C387.715 14.56 386.729 13.7333 385.902 12.64C385.075 11.5467 384.662 10.12 384.662 8.36C384.662 5.74667 385.609 3.70667 387.502 2.24C389.395 0.746666 391.862 0 394.902 0C397.995 0 400.489 0.746666 402.382 2.24C404.275 3.70667 405.289 5.76 405.422 8.4H398.022C397.969 7.49333 397.635 6.78667 397.022 6.28C396.409 5.74667 395.622 5.48 394.662 5.48C393.835 5.48 393.169 5.70667 392.662 6.16C392.155 6.58666 391.902 7.21333 391.902 8.04C391.902 8.94666 392.329 9.65333 393.182 10.16C394.035 10.6667 395.369 11.2133 397.182 11.8C398.995 12.4133 400.462 13 401.582 13.56C402.729 14.12 403.715 14.9333 404.542 16C405.369 17.0667 405.782 18.44 405.782 20.12C405.782 21.72 405.369 23.1733 404.542 24.48C403.742 25.7867 402.569 26.8267 401.022 27.6C399.475 28.3733 397.649 28.76 395.542 28.76Z" fill="white"/>
</svg>
